<?xml version="1.0" encoding="utf-8"?>
<!-- Uploaded to: SVG Repo, www.svgrepo.com, Generator: SVG Repo Mixer Tools -->
<svg fill="#000000" height="800px" width="800px" version="1.2" baseProfile="tiny" id="Layer_1" xmlns="http://www.w3.org/2000/svg" xmlns:xlink="http://www.w3.org/1999/xlink"
	  viewBox="-351 153 256 256" xml:space="preserve">
<path d="M-223.4,158.8l-120.5,60.7v183.1h9.6V225.3l110.9-55.6l111,55.8v177.1h9.4V219.5L-223.4,158.8z M-149.7,303.5l-14.8-38.2
	c-2.7-7.2-8.8-13.5-20.3-13.5h-20.9h-35.7h-21.1c-11.3,0-17.3,6.2-20.3,13.5l-14.8,38.2c-5.8,0.8-16.2,7.6-16.2,20.6v48.6h14.4v15.6
	c0,19.1,27.1,19,27.1,0v-15.6h48.8h48.8v15.6c0,19,27.1,19.1,27.1,0v-15.6h14.4v-48.6C-133.5,311.1-143.8,304.1-149.7,303.5z
	 M-285.5,343.4c-6.8,0-12.5-5.8-12.5-12.9c0-7,5.6-12.9,12.5-12.9c6.8,0,12.5,5.8,12.5,12.9C-273,337.6-278.5,343.4-285.5,343.4z
	 M-223.7,303.1h-58.5l11.1-30.1c1.3-4.3,3.5-7.2,8.4-7.4h39h39c4.9,0,7,3.1,8.4,7.4l11.1,30.1H-223.7z M-161.7,343.4
	c-6.8,0-12.5-5.8-12.5-12.9c0-7,5.6-12.9,12.5-12.9s12.5,5.8,12.5,12.9C-149.2,337.6-154.9,343.4-161.7,343.4z"/>
</svg>